{
  "accessors": [
    {
      "bufferView": 2,
      "componentType": 5126,
      "count": 12086,
      "max": [
        541.25848388671875,
        3233.720703125,
        529.84100341796875
      ],
      "min": [
        -541.25848388671875,
        13.191499710083008,
        -303.9197998046875
      ],
      "type": "VEC3"
    },
    {
      "bufferView": 2,
      "byteOffset": 145032,
      "componentType": 5126,
      "count": 12086,
      "max": [
        1,
        1,
        0.99999988079071045
      ],
      "min": [
        -1,
        -1,
        -0.99999505281448364
      ],
      "type": "VEC3"
    },
    {
      "bufferView": 3,
      "componentType": 5126,
      "count": 12086,
      "max": [
        1,
        1,
        0.99999904632568359,
        1
      ],
      "min": [
        -1,
        -1,
        -0.99999982118606567,
        -1
      ],
      "type": "VEC4"
    },
    {
      "bufferView": 3,
      "byteOffset": 193376,
      "componentType": 5126,
      "count": 12086,
      "max": [
        1,
        1,
        1,
        1
      ],
      "min": [
        1,
        1,
        1,
        1
      ],
      "type": "VEC4"
    },
    {
      "bufferView": 1,
      "componentType": 5126,
      "count": 12086,
      "max": [
        0.99779999256134033,
        0.99800002574920654
      ],
      "min": [
        0.0020000000949949026,
        0.0020000000949949026
      ],
      "type": "VEC2"
    },
    {
      "bufferView": 0,
      "componentType": 5125,
      "count": 33093,
      "max": [
        12085
      ],
      "min": [
        0
      ],
      "type": "SCALAR"
    }
  ],
  "asset": {
    "extras": {
      "author": "ruddy illanes (https://sketchfab.com/rmib200)",
      "license": "CC-BY-4.0 (http://creativecommons.org/licenses/by/4.0/)",
      "source": "https://sketchfab.com/3d-models/eva01-f5fc6eb373144f1e82afd521f1f1326e",
      "title": "Eva01"
    },
    "generator": "Sketchfab-6.22.0",
    "version": "2.0"
  },
  "bufferViews": [
    {
      "buffer": 0,
      "byteLength": 132372,
      "byteOffset": 0,
      "name": "floatBufferViews",
      "target": 34963
    },
    {
      "buffer": 0,
      "byteLength": 96688,
      "byteOffset": 132372,
      "byteStride": 8,
      "name": "floatBufferViews",
      "target": 34962
    },
    {
      "buffer": 0,
      "byteLength": 290064,
      "byteOffset": 229060,
      "byteStride": 12,
      "name": "floatBufferViews",
      "target": 34962
    },
    {
      "buffer": 0,
      "byteLength": 386752,
      "byteOffset": 519124,
      "byteStride": 16,
      "name": "floatBufferViews",
      "target": 34962
    }
  ],
  "buffers": [
    {
      "byteLength": 905876,
      "uri": "scene.bin"
    }
  ],
  "images": [
    {
      "uri": "textures/Material__5_baseColor.png"
    }
  ],
  "materials": [
    {
      "doubleSided": true,
      "emissiveFactor": [
        0,
        0,
        0
      ],
      "name": "Material__5",
      "pbrMetallicRoughness": {
        "baseColorFactor": [
          1,
          1,
          1,
          1
        ],
        "baseColorTexture": {
          "index": 0,
          "texCoord": 0
        },
        "metallicFactor": 0,
        "roughnessFactor": 0.59999999999999998
      }
    }
  ],
  "meshes": [
    {
      "name": "cuerpo.001_Material__5_0",
      "primitives": [
        {
          "attributes": {
            "COLOR_0": 3,
            "NORMAL": 1,
            "POSITION": 0,
            "TANGENT": 2,
            "TEXCOORD_0": 4
          },
          "indices": 5,
          "material": 0,
          "mode": 4
        }
      ]
    }
  ],
  "nodes": [
    {
      "children": [
        1
      ],
      "name": "RootNode (gltf orientation matrix)",
      "rotation": [
        -0.70710678118654746,
        -0,
        -0,
        0.70710678118654757
      ]
    },
    {
      "children": [
        2
      ],
      "name": "RootNode (model correction matrix)"
    },
    {
      "children": [
        3
      ],
      "matrix": [
        1,
        0,
        0,
        0,
        0,
        0,
        1,
        0,
        0,
        -1,
        0,
        0,
        0,
        0,
        0,
        1
      ],
      "name": "da7d217ae2b34fa7bf03474b937bb94e.fbx"
    },
    {
      "children": [
        4
      ],
      "name": "RootNode"
    },
    {
      "children": [
        5
      ],
      "matrix": [
        0.55892109870910645,
        0,
        0,
        0,
        0,
        0.55892109870909901,
        9.1059808230751456e-08,
        0,
        0,
        -9.1059808230751456e-08,
        0.55892109870909901,
        0,
        2.9728789329528809,
        -60.199260711669922,
        -3353.810791015625,
        1
      ],
      "name": "cuerpo.001"
    },
    {
      "mesh": 0,
      "name": "cuerpo.001_Material__5_0"
    }
  ],
  "samplers": [
    {
      "magFilter": 9729,
      "minFilter": 9987,
      "wrapS": 10497,
      "wrapT": 10497
    }
  ],
  "scene": 0,
  "scenes": [
    {
      "name": "OSG_Scene",
      "nodes": [
        0
      ]
    }
  ],
  "textures": [
    {
      "sampler": 0,
      "source": 0
    }
  ]
}

