{
  "accessors": [
    {
      "bufferView": 2,
      "componentType": 5126,
      "count": 30834,
      "max": [
        0.19262364506721497,
        4.161806583404541,
        0.10118497908115387
      ],
      "min": [
        -0.19262364506721497,
        -3.7475926876068115,
        -0.10118497908115387
      ],
      "type": "VEC3"
    },
    {
      "bufferView": 2,
      "byteOffset": 370008,
      "componentType": 5126,
      "count": 30834,
      "max": [
        0.9999699592590332,
        0.9994124174118042,
        1
      ],
      "min": [
        -0.9999699592590332,
        -0.95709389448165894,
        -1
      ],
      "type": "VEC3"
    },
    {
      "bufferView": 3,
      "componentType": 5126,
      "count": 30834,
      "max": [
        0.9989810585975647,
        1,
        0.99431025981903076,
        1
      ],
      "min": [
        -0.99172002077102661,
        -0.99999874830245972,
        -0.99862593412399292,
        -1
      ],
      "type": "VEC4"
    },
    {
      "bufferView": 1,
      "componentType": 5126,
      "count": 30834,
      "max": [
        0.98088181018829346,
        0.97176545858383179
      ],
      "min": [
        0.0015198340406641364,
        0.013999046757817268
      ],
      "type": "VEC2"
    },
    {
      "bufferView": 0,
      "componentType": 5125,
      "count": 57240,
      "max": [
        30833
      ],
      "min": [
        0
      ],
      "type": "SCALAR"
    },
    {
      "bufferView": 4,
      "componentType": 5126,
      "count": 38,
      "max": [
        0.79166668653488159
      ],
      "min": [
        0
      ],
      "type": "SCALAR"
    },
    {
      "bufferView": 5,
      "componentType": 5126,
      "count": 38,
      "max": [
        302.45611572265625,
        445.92706298828125,
        806.3575439453125
      ],
      "min": [
        -350.89352416992188,
        -417.4930419921875,
        -875.20123291015625
      ],
      "type": "VEC3"
    },
    {
      "bufferView": 4,
      "byteOffset": 152,
      "componentType": 5126,
      "count": 38,
      "max": [
        0.79166668653488159
      ],
      "min": [
        0
      ],
      "type": "SCALAR"
    },
    {
      "bufferView": 5,
      "byteOffset": 456,
      "componentType": 5126,
      "count": 38,
      "max": [
        302.45611572265625,
        445.92706298828125,
        806.3575439453125
      ],
      "min": [
        -350.89352416992188,
        -417.4930419921875,
        -875.20123291015625
      ],
      "type": "VEC3"
    }
  ],
  "animations": [
    {
      "channels": [
        {
          "sampler": 0,
          "target": {
            "node": 5,
            "path": "translation"
          }
        }
      ],
      "name": "DefaultCube.011|DefaultCube.010Action",
      "samplers": [
        {
          "input": 5,
          "interpolation": "LINEAR",
          "output": 6
        }
      ]
    },
    {
      "channels": [
        {
          "sampler": 0,
          "target": {
            "node": 5,
            "path": "translation"
          }
        }
      ],
      "name": "DefaultCube.011|DefaultCube.010Action.001",
      "samplers": [
        {
          "input": 7,
          "interpolation": "LINEAR",
          "output": 8
        }
      ]
    }
  ],
  "asset": {
    "extras": {
      "author": "Mr. The Rich (https://sketchfab.com/MatthijsDeRijk)",
      "license": "CC-BY-4.0 (http://creativecommons.org/licenses/by/4.0/)",
      "source": "https://sketchfab.com/3d-models/lance-of-longinus-c99cc77024a141beb6555778fd577d0a",
      "title": "Lance of Longinus"
    },
    "generator": "Sketchfab-4.78.0",
    "version": "2.0"
  },
  "bufferViews": [
    {
      "buffer": 0,
      "byteLength": 228960,
      "byteOffset": 0,
      "name": "floatBufferViews",
      "target": 34963
    },
    {
      "buffer": 0,
      "byteLength": 246672,
      "byteOffset": 228960,
      "byteStride": 8,
      "name": "floatBufferViews",
      "target": 34962
    },
    {
      "buffer": 0,
      "byteLength": 740016,
      "byteOffset": 475632,
      "byteStride": 12,
      "name": "floatBufferViews",
      "target": 34962
    },
    {
      "buffer": 0,
      "byteLength": 493344,
      "byteOffset": 1215648,
      "byteStride": 16,
      "name": "floatBufferViews",
      "target": 34962
    },
    {
      "buffer": 0,
      "byteLength": 304,
      "byteOffset": 1708992,
      "name": "floatBufferViews"
    },
    {
      "buffer": 0,
      "byteLength": 912,
      "byteOffset": 1709296,
      "byteStride": 12,
      "name": "floatBufferViews"
    }
  ],
  "buffers": [
    {
      "byteLength": 1710208,
      "uri": "scene.bin"
    }
  ],
  "images": [
    {
      "uri": "textures/Material_metallicRoughness.png"
    },
    {
      "uri": "textures/Material_baseColor.png"
    }
  ],
  "materials": [
    {
      "doubleSided": true,
      "emissiveFactor": [
        0,
        0,
        0
      ],
      "name": "Material",
      "occlusionTexture": {
        "index": 0,
        "strength": 1,
        "texCoord": 0
      },
      "pbrMetallicRoughness": {
        "baseColorFactor": [
          1,
          1,
          1,
          1
        ],
        "baseColorTexture": {
          "index": 1,
          "texCoord": 0
        },
        "metallicFactor": 0.69073932930000004,
        "metallicRoughnessTexture": {
          "index": 0,
          "texCoord": 0
        },
        "roughnessFactor": 1
      }
    }
  ],
  "meshes": [
    {
      "name": "DefaultCube.011_Material_0",
      "primitives": [
        {
          "attributes": {
            "NORMAL": 1,
            "POSITION": 0,
            "TANGENT": 2,
            "TEXCOORD_0": 3
          },
          "indices": 4,
          "material": 0,
          "mode": 4
        }
      ]
    }
  ],
  "nodes": [
    {
      "children": [
        1
      ],
      "name": "RootNode (gltf orientation matrix)",
      "rotation": [
        -0.70710678118654746,
        -0,
        -0,
        0.70710678118654757
      ]
    },
    {
      "children": [
        2
      ],
      "name": "RootNode (model correction matrix)"
    },
    {
      "children": [
        3
      ],
      "matrix": [
        1,
        0,
        0,
        0,
        0,
        0,
        1,
        0,
        0,
        -1,
        0,
        0,
        0,
        0,
        0,
        1
      ],
      "name": "a7759db7cd814d0d9bb2b9d00b559693.fbx"
    },
    {
      "children": [
        4
      ],
      "name": ""
    },
    {
      "children": [
        5
      ],
      "name": "RootNode"
    },
    {
      "children": [
        6
      ],
      "name": "DefaultCube.011",
      "rotation": [
        -0.31041839718818665,
        0.4626849889755249,
        -0.4333420991897583,
        0.7083626389503479
      ],
      "scale": [
        100,
        99.999992370605469,
        100
      ],
      "translation": [
        -24.218706130981445,
        14.216995239257812,
        -34.421863555908203
      ]
    },
    {
      "mesh": 0,
      "name": "DefaultCube.011_Material_0"
    }
  ],
  "samplers": [
    {
      "magFilter": 9729,
      "minFilter": 9987,
      "wrapS": 10497,
      "wrapT": 10497
    }
  ],
  "scene": 0,
  "scenes": [
    {
      "name": "OSG_Scene",
      "nodes": [
        0
      ]
    }
  ],
  "textures": [
    {
      "sampler": 0,
      "source": 0
    },
    {
      "sampler": 0,
      "source": 1
    }
  ]
}

